<svg width="25" height="25" viewBox="0 0 25 25" fill="none" xmlns="http://www.w3.org/2000/svg">
<path d="M7.59399 14.8086C6.57407 13.2936 5.97817 11.4706 5.97817 9.51094C5.97817 4.2666 10.2448 0 15.4891 0C20.7334 0 25 4.2666 25 9.51089C25 14.7552 20.7334 19.0218 15.4891 19.0218C13.4907 19.0218 11.6348 18.4018 10.1024 17.3448L2.52222 24.8921L0 22.3699L7.59399 14.8086ZM15.4891 16.3505C19.2521 16.3505 22.3137 13.289 22.3137 9.52588C22.3137 5.76284 19.2521 2.70132 15.4891 2.70132C11.726 2.70132 8.66445 5.76284 8.66445 9.52593C8.66445 13.289 11.726 16.3505 15.4891 16.3505Z" fill="white"/>
</svg>
